<?xml version="1.0" encoding="UTF-8" standalone="no"?>
<!DOCTYPE svg PUBLIC "-//W3C//DTD SVG 1.1//EN" "http://www.w3.org/Graphics/SVG/1.1/DTD/svg11.dtd">
<svg width="100%" height="100%" viewBox="0 0 54 54" version="1.1" xmlns="http://www.w3.org/2000/svg" xmlns:xlink="http://www.w3.org/1999/xlink" xml:space="preserve" xmlns:serif="http://www.serif.com/" style="fill-rule:evenodd;clip-rule:evenodd;stroke-linejoin:round;stroke-miterlimit:2;">
    <path d="M48.1,12.9L48.1,39.7C48.1,41.9 47.3,43.8 45.7,45.4C44.1,47 42.2,47.8 40,47.8L13.3,47.8C11.1,47.8 9.2,47 7.6,45.4C6,43.8 5.2,41.9 5.2,39.7L5.2,12.9C5.2,10.7 6,8.8 7.6,7.2C9.2,5.6 11.1,4.8 13.3,4.8L40,4.8C42.2,4.8 44.1,5.6 45.7,7.2C47.3,8.8 48.1,10.7 48.1,12.9ZM41.3,19.1C41.5,15.1 40,13 36.8,12.9C32.5,12.8 29.6,15.2 28.1,20.2C28.9,19.8 29.7,19.7 30.4,19.7C32,19.7 32.7,20.6 32.5,22.4C32.4,23.5 31.7,25 30.4,27.1C29.1,29.1 28.1,30.2 27.5,30.2C26.7,30.2 25.9,28.6 25.2,25.5C25,24.5 24.5,22.1 23.9,18.4C23.3,14.9 21.9,13.2 19.4,13.5C18.3,13.6 16.8,14.6 14.8,16.3C14.3,16.7 13.5,17.4 12.5,18.3C11.5,19.2 10.7,19.9 10.2,20.3L11.7,22.2C13.1,21.2 13.9,20.7 14.1,20.7C15.2,20.7 16.2,22.4 17.1,25.7C17.4,26.7 17.8,28.3 18.4,30.3C19,32.3 19.4,33.9 19.7,34.9C21,38.2 22.5,39.9 24.3,39.9C27.2,39.9 30.8,37.2 35,31.7C39.1,26.2 41.2,22.1 41.3,19.1Z" style="fill-rule:nonzero;"/>
</svg>
